<svg width="160" height="42" viewBox="0 0 160 42" fill="none" xmlns="http://www.w3.org/2000/svg">
<path d="M12.916 32H0.953125V30.7305H4.85938V3.97266H0.953125V2.70312H12.916V3.97266H9.05859V16.1797H24.0488V3.97266H20.1426V2.70312H32.1055V3.97266H28.248V30.7305H30.8359C30.9987 30.7305 31.1615 30.7467 31.3242 30.7793C31.8451 30.877 32.1055 31.2839 32.1055 32H20.1426V30.7305H24.0488V17.5957H9.05859V30.7305H11.6465C11.8092 30.7305 11.972 30.7467 12.1348 30.7793C12.6556 30.877 12.916 31.2839 12.916 32Z" fill="#F8C07E"/>
<path d="M40.1621 21.5996C40.1621 22.9993 40.276 24.2689 40.5039 25.4082C41.3503 29.3145 43.4173 31.2676 46.7051 31.2676C47.3236 31.2676 47.9258 31.1862 48.5117 31.0234C51.5065 30.0794 53.0039 26.873 53.0039 21.4043C53.0039 20.4603 52.9551 19.5977 52.8574 18.8164C52.2715 14.2591 50.1719 11.9805 46.5586 11.9805C45.7773 11.9805 45.0286 12.1107 44.3125 12.3711C41.5456 13.4779 40.1621 16.554 40.1621 21.5996ZM46.7051 10.7598C48.8535 10.7598 50.8229 11.3294 52.6133 12.4688C55.6406 14.4544 57.1543 17.498 57.1543 21.5996C57.1543 24.627 56.2103 27.1497 54.3223 29.168C52.2715 31.3815 49.6836 32.4883 46.5586 32.4883C44.3451 32.4883 42.3268 31.8698 40.5039 30.6328C37.5091 28.582 36.0117 25.5059 36.0117 21.4043C36.0117 18.4421 36.972 15.9681 38.8926 13.9824C40.9759 11.834 43.5801 10.7598 46.7051 10.7598ZM70.0938 30.7793C70.2565 30.7793 70.4193 30.7956 70.582 30.8281C71.0703 30.9258 71.3145 31.3164 71.3145 32H60.5723V30.7793C61.679 30.7793 62.4766 30.6979 62.9648 30.5352C63.8112 30.2422 64.2344 29.347 64.2344 27.8496V12.4688H60.5723V11.248H67.6523L67.8477 16.1309C68.1732 15.252 68.6126 14.4544 69.166 13.7383C70.696 11.7526 72.6328 10.7598 74.9766 10.7598C75.5951 10.7598 76.1973 10.8737 76.7832 11.1016C78.7689 11.8503 80.0547 13.5104 80.6406 16.082C80.901 15.431 81.2266 14.8125 81.6172 14.2266C83.1146 11.9154 85.1003 10.7598 87.5742 10.7598C88.7135 10.7598 89.7715 11.0527 90.748 11.6387C92.929 12.9733 94.0195 15.3171 94.0195 18.6699V30.7793H96.5098C96.7051 30.7793 96.8678 30.7956 96.998 30.8281C97.4863 30.8932 97.7305 31.2839 97.7305 32H86.9395V30.7793C88.0462 30.7793 88.8275 30.6979 89.2832 30.5352C89.9993 30.2422 90.3574 29.347 90.3574 27.8496V18.1816C90.3574 17.14 90.1947 16.2122 89.8691 15.3984C89.1855 13.6732 88.0137 12.8105 86.3535 12.8105C85.735 12.8105 85.084 12.9733 84.4004 13.2988C82.61 14.2428 81.4544 15.903 80.9336 18.2793V18.6699V30.7793H83.1309C83.3262 30.7793 83.4889 30.7956 83.6191 30.8281C84.1074 30.8932 84.3516 31.2839 84.3516 32H73.8535V30.7793C74.9603 30.7793 75.7415 30.6979 76.1973 30.5352C76.9134 30.2422 77.2715 29.347 77.2715 27.8496V18.1816C77.2715 17.2051 77.1413 16.3262 76.8809 15.5449C76.2624 13.7546 75.1393 12.8594 73.5117 12.8594C72.6328 12.8594 71.7539 13.1849 70.875 13.8359C68.987 15.2357 67.9941 17.3678 67.8965 20.2324V30.7793H70.0938ZM111.109 11.9805C110.263 11.9805 109.465 12.1758 108.717 12.5664C106.438 13.7057 105.217 16.1471 105.055 19.8906L110.23 20.0371C111.728 20.0697 112.883 20.0046 113.697 19.8418C115.26 19.4837 116.041 18.4909 116.041 16.8633C116.041 16.1471 115.911 15.4798 115.65 14.8613C114.902 12.9408 113.388 11.9805 111.109 11.9805ZM119.605 27.3125C119.41 27.7682 119.182 28.224 118.922 28.6797C117.262 31.2188 114.674 32.4883 111.158 32.4883C108.945 32.4883 106.975 31.9186 105.25 30.7793C102.353 28.8262 100.904 25.8314 100.904 21.7949C100.904 19.5814 101.36 17.5957 102.271 15.8379C104.029 12.4525 106.943 10.7598 111.012 10.7598C113.095 10.7598 114.934 11.2318 116.529 12.1758C118.775 13.4779 119.898 15.2357 119.898 17.4492C119.898 18.6536 119.459 19.5814 118.58 20.2324C117.441 21.0462 114.885 21.4206 110.914 21.3555L105.055 21.2578C105.087 22.625 105.234 23.8783 105.494 25.0176C106.373 29.0866 108.521 31.1211 111.939 31.1211C112.232 31.1211 112.542 31.1048 112.867 31.0723C115.406 30.7467 117.245 29.347 118.385 26.873L119.605 27.3125ZM133.18 30.7793C133.375 30.7793 133.538 30.7956 133.668 30.8281C134.156 30.8932 134.4 31.2839 134.4 32H123.219V30.7793C124.326 30.7793 125.123 30.6979 125.611 30.5352C126.458 30.2422 126.881 29.347 126.881 27.8496V1.48242H123.219V0.261719H130.543V30.7793H133.18ZM140.748 39.7637C141.204 39.7637 141.66 39.666 142.115 39.4707C143.71 38.7871 145.419 36.2969 147.242 32L138.453 12.5176H136.061V11.248H145.582V12.5176H142.311L149 28.1426L155.25 12.5176H151.686V11.248H159.107C159.107 11.541 159.075 11.7852 159.01 11.9805C158.912 12.3385 158.538 12.5176 157.887 12.5176C157.594 12.5176 157.333 12.5501 157.105 12.6152C156.715 12.7454 156.357 13.2663 156.031 14.1777L148.805 32C148.089 33.7578 147.34 35.2715 146.559 36.541C144.671 39.6986 142.441 41.2773 139.869 41.2773C139.153 41.2773 138.469 41.1471 137.818 40.8867C136.386 40.3333 135.67 39.4382 135.67 38.2012C135.67 38.1035 135.686 37.9896 135.719 37.8594C135.882 36.9479 136.484 36.4922 137.525 36.4922C137.916 36.4922 138.258 36.5898 138.551 36.7852C138.876 37.013 139.218 37.6152 139.576 38.5918C139.837 39.373 140.227 39.7637 140.748 39.7637Z" fill="black"/>
</svg>
